<svg xmlns="http://www.w3.org/2000/svg" viewBox="0 0 390 520">
  <defs>
    <linearGradient id="bg" x1="0" y1="0" x2="0" y2="1">
      <stop offset="0%" stop-color="#090a12"/>
      <stop offset="55%" stop-color="#1f1820"/>
      <stop offset="100%" stop-color="#452818"/>
    </linearGradient>
    <radialGradient id="star" cx="50%" cy="18%" r="36%">
      <stop offset="0%" stop-color="#fff1a6" stop-opacity=".95"/>
      <stop offset="100%" stop-color="#fff1a6" stop-opacity="0"/>
    </radialGradient>
  </defs>
  <rect width="390" height="520" fill="url(#bg)"/>
  <circle cx="195" cy="88" r="78" fill="url(#star)"/>
  <path d="M42 360 L195 208 L348 360 Z" fill="#2c170c"/>
  <path d="M95 360 L195 248 L295 360 Z" fill="#472311"/>
  <rect x="111" y="360" width="168" height="90" fill="#5d2b14"/>
  <rect x="173" y="312" width="44" height="138" fill="#3c1e10"/>
  <ellipse cx="196" cy="397" rx="52" ry="22" fill="#efd8a0" opacity=".45"/>
  <path d="M156 392 C170 374 183 365 196 365 C209 365 222 374 236 392 C220 401 208 406 196 406 C184 406 172 401 156 392 Z" fill="#f5deb3"/>
</svg>
