<svg width="1200" height="1800" viewBox="0 0 1200 1800" fill="none" xmlns="http://www.w3.org/2000/svg">
  <rect width="1200" height="1800" fill="#0A1117"/>
  <rect width="1200" height="980" fill="url(#sky)"/>
  <ellipse cx="600" cy="1548" rx="548" ry="224" fill="#091017"/>
  <path d="M74 1242C198 1116 368 1050 600 1050C832 1050 1002 1116 1126 1242V1668H74V1242Z" fill="#14222B"/>
  <path d="M152 1184C288 1098 436 1058 600 1058C764 1058 912 1098 1048 1184" stroke="#27424F" stroke-width="28" stroke-linecap="round"/>
  <path d="M126 1306C270 1228 428 1190 600 1190C772 1190 930 1228 1074 1306" stroke="#203843" stroke-width="22" stroke-linecap="round"/>
  <path d="M104 1424C256 1358 422 1328 600 1328C778 1328 944 1358 1096 1424" stroke="#192D36" stroke-width="18" stroke-linecap="round"/>
  <path d="M322 1018C388 958 480 924 600 924C720 924 812 958 878 1018" stroke="#486673" stroke-width="20" stroke-linecap="round"/>
  <path d="M374 1018L430 1188" stroke="#5A7B87" stroke-width="14" stroke-linecap="round"/>
  <path d="M826 1018L770 1188" stroke="#5A7B87" stroke-width="14" stroke-linecap="round"/>
  <path d="M430 1188H770" stroke="#6E909C" stroke-width="16" stroke-linecap="round"/>
  <ellipse cx="600" cy="514" rx="144" ry="56" fill="#BEDAE6" fill-opacity=".18"/>
  <path d="M600 450V690" stroke="#D9EDF7" stroke-width="10" stroke-linecap="round" stroke-opacity=".2"/>
  <defs>
    <linearGradient id="sky" x1="600" y1="0" x2="600" y2="980" gradientUnits="userSpaceOnUse">
      <stop stop-color="#1B2D37"/>
      <stop offset=".56" stop-color="#10202A"/>
      <stop offset="1" stop-color="#0A1117"/>
    </linearGradient>
  </defs>
</svg>
