<svg xmlns="http://www.w3.org/2000/svg" viewBox="0 0 390 520">
  <defs>
    <linearGradient id="tombSky" x1="0" y1="0" x2="0" y2="1">
      <stop offset="0%" stop-color="#f7efe3"/>
      <stop offset="44%" stop-color="#dfb88f"/>
      <stop offset="100%" stop-color="#8b5e4f"/>
    </linearGradient>
    <radialGradient id="tombLight" cx="68%" cy="20%" r="34%">
      <stop offset="0%" stop-color="#fffdf4" stop-opacity=".96"/>
      <stop offset="100%" stop-color="#fffdf4" stop-opacity="0"/>
    </radialGradient>
  </defs>
  <rect width="390" height="520" fill="url(#tombSky)"/>
  <circle cx="255" cy="108" r="108" fill="url(#tombLight)"/>
  <path d="M0 322 C66 293 129 304 198 287 C270 270 331 276 390 262 L390 520 L0 520 Z" fill="#b78e6d"/>
  <path d="M0 402 C81 381 145 387 211 372 C281 355 335 361 390 350 L390 520 L0 520 Z" fill="#855847"/>
  <ellipse cx="100" cy="301" rx="59" ry="42" fill="#735243"/>
  <ellipse cx="109" cy="301" rx="36" ry="26" fill="#2d201d"/>
  <path d="M148 520 C150 459 170 403 208 357 C227 334 244 322 269 318" fill="none" stroke="#f4ead5" stroke-width="27" stroke-linecap="round" opacity=".52"/>
  <g fill="#3b2a26">
    <circle cx="237" cy="330" r="13"/>
    <path d="M224 343 C225 364 221 393 217 424 C229 431 245 431 258 424 C254 393 251 364 251 343 Z"/>
  </g>
  <path d="M275 520 C270 478 280 438 306 405 C320 428 331 465 338 520 Z" fill="#6c4b3d" opacity=".26"/>
</svg>
