<svg width="1200" height="1800" viewBox="0 0 1200 1800" fill="none" xmlns="http://www.w3.org/2000/svg">
  <rect width="1200" height="1800" fill="#F1F0EA"/>
  <rect width="1200" height="1040" fill="url(#sky)"/>
  <circle cx="600" cy="328" r="176" fill="#FFFFFF" fill-opacity=".56"/>
  <path d="M0 1136C128 1026 264 970 432 954C606 938 768 972 948 950C1048 938 1134 910 1200 876V1800H0V1136Z" fill="#B6BDC6"/>
  <path d="M0 1320C142 1224 296 1184 468 1176C644 1168 806 1200 984 1180C1076 1168 1148 1146 1200 1122V1800H0V1320Z" fill="#818C9B"/>
  <path d="M522 1800C550 1468 586 1262 614 1080C646 1256 686 1464 726 1800H522Z" fill="#556173"/>
  <circle cx="622" cy="1046" r="26" fill="#556173"/>
  <rect x="594" y="1072" width="56" height="182" rx="24" fill="#556173"/>
  <rect x="496" y="740" width="212" height="20" rx="10" fill="#D6B38D" fill-opacity=".82"/>
  <rect x="592" y="604" width="20" height="262" rx="10" fill="#D6B38D" fill-opacity=".82"/>
  <ellipse cx="950" cy="254" rx="104" ry="42" fill="#FFFFFF" fill-opacity=".22"/>
  <defs>
    <linearGradient id="sky" x1="600" y1="0" x2="600" y2="1040" gradientUnits="userSpaceOnUse">
      <stop stop-color="#F4F3ED"/>
      <stop offset=".44" stop-color="#D8DADF"/>
      <stop offset="1" stop-color="#748297"/>
    </linearGradient>
  </defs>
</svg>
