<svg width="1200" height="1800" viewBox="0 0 1200 1800" fill="none" xmlns="http://www.w3.org/2000/svg">
  <rect width="1200" height="1800" fill="#160A11"/>
  <rect width="1200" height="1020" fill="url(#sky)"/>
  <circle cx="640" cy="404" r="176" fill="#F5D0B2" fill-opacity=".18"/>
  <path d="M0 1030C138 936 260 886 404 864C544 844 686 862 834 834C962 810 1084 746 1200 648V1800H0V1030Z" fill="#3B1E2A"/>
  <path d="M0 1200C148 1118 288 1062 446 1048C598 1036 744 1066 904 1028C1030 998 1128 940 1200 890V1800H0V1200Z" fill="#5A342F"/>
  <path d="M394 1800C438 1472 520 1248 598 1088C676 1238 764 1464 814 1800H394Z" fill="#DCCAB7" fill-opacity=".76"/>
  <path d="M502 1080C542 1026 584 1000 626 1000C668 1000 708 1026 748 1080" stroke="#D8C5B4" stroke-width="16" stroke-linecap="round"/>
  <path d="M116 1368C246 1286 358 1268 478 1270C620 1272 742 1310 878 1308C986 1306 1096 1278 1200 1230" stroke="#6D453D" stroke-width="18" stroke-linecap="round"/>
  <path d="M90 1478C212 1408 334 1384 466 1388C618 1392 758 1438 904 1434C1012 1432 1114 1408 1200 1372" stroke="#4B2A29" stroke-width="12" stroke-linecap="round"/>
  <circle cx="562" cy="1054" r="24" fill="#26141B"/>
  <rect x="536" y="1080" width="52" height="182" rx="24" fill="#26141B"/>
  <circle cx="662" cy="1058" r="22" fill="#26141B"/>
  <rect x="638" y="1082" width="48" height="170" rx="22" fill="#26141B"/>
  <defs>
    <linearGradient id="sky" x1="600" y1="0" x2="600" y2="1020" gradientUnits="userSpaceOnUse">
      <stop stop-color="#181721"/>
      <stop offset=".46" stop-color="#472635"/>
      <stop offset="1" stop-color="#8A5646"/>
    </linearGradient>
  </defs>
</svg>
