<svg width="1200" height="1800" viewBox="0 0 1200 1800" fill="none" xmlns="http://www.w3.org/2000/svg">
  <rect width="1200" height="1800" fill="#100B09"/>
  <rect width="1200" height="1120" fill="url(#sky)"/>
  <circle cx="606" cy="372" r="178" fill="#FFE2A3" fill-opacity=".2"/>
  <circle cx="606" cy="372" r="102" fill="#FFF1CF" fill-opacity=".26"/>
  <path d="M0 1206C146 1070 320 986 600 986C880 986 1054 1070 1200 1206V1668H0V1206Z" fill="#17100D"/>
  <path d="M64 1338C222 1220 404 1164 600 1164C796 1164 978 1220 1136 1338" stroke="#2E2017" stroke-width="28" stroke-linecap="round"/>
  <path d="M128 1460C276 1378 438 1340 600 1340C762 1340 924 1378 1072 1460" stroke="#251912" stroke-width="18" stroke-linecap="round"/>
  <path d="M360 1264C404 1208 468 1178 544 1178C588 1178 624 1200 652 1240V1538H360V1264Z" fill="#2B1C14"/>
  <path d="M674 1254C720 1204 784 1178 858 1178C904 1178 942 1198 972 1234V1538H674V1254Z" fill="#241811"/>
  <path d="M598 1106L548 1248H648L598 1106Z" fill="#F7D494"/>
  <path d="M512 518C566 460 620 434 676 434C730 434 782 456 834 500" stroke="#FFF0C8" stroke-width="10" stroke-linecap="round" stroke-opacity=".42"/>
  <path d="M436 594C502 520 560 484 614 484C666 484 732 516 812 594" stroke="#FFE7B7" stroke-width="8" stroke-linecap="round" stroke-opacity=".28"/>
  <circle cx="484" cy="296" r="4" fill="#FFF1CC"/>
  <circle cx="388" cy="426" r="3" fill="#FFE8B5"/>
  <circle cx="732" cy="262" r="4" fill="#FFF1CC"/>
  <circle cx="846" cy="402" r="3" fill="#FFE8B5"/>
  <circle cx="606" cy="180" r="5" fill="#FFF6DD"/>
  <defs>
    <linearGradient id="sky" x1="600" y1="0" x2="600" y2="1120" gradientUnits="userSpaceOnUse">
      <stop stop-color="#241710"/>
      <stop offset=".42" stop-color="#19110D"/>
      <stop offset="1" stop-color="#100B09"/>
    </linearGradient>
  </defs>
</svg>
