<svg width="1200" height="1800" viewBox="0 0 1200 1800" fill="none" xmlns="http://www.w3.org/2000/svg">
  <rect width="1200" height="1800" fill="#ECF5F4"/>
  <rect width="1200" height="1040" fill="url(#sky)"/>
  <circle cx="884" cy="284" r="94" fill="#FFF5CF" fill-opacity=".9"/>
  <path d="M0 1080C114 1046 240 1058 392 1028C520 1002 678 996 824 978C972 960 1088 954 1200 924V1800H0V1080Z" fill="#8FB4C1"/>
  <path d="M0 1254C142 1218 276 1226 438 1200C596 1174 734 1176 878 1154C1022 1132 1124 1124 1200 1102V1800H0V1254Z" fill="#6D94A4"/>
  <path d="M308 1118L520 1038L814 1094L668 1184L308 1118Z" fill="#655854"/>
  <circle cx="600" cy="1034" r="22" fill="#332D31"/>
  <rect x="576" y="1058" width="48" height="144" rx="22" fill="#332D31"/>
  <path d="M96 1388C274 1336 428 1332 612 1326C800 1320 970 1338 1200 1298" stroke="#9ABFCB" stroke-width="12" stroke-linecap="round"/>
  <defs>
    <linearGradient id="sky" x1="600" y1="0" x2="600" y2="1040" gradientUnits="userSpaceOnUse">
      <stop stop-color="#EEF7F6"/>
      <stop offset=".48" stop-color="#BFD7DC"/>
      <stop offset="1" stop-color="#557787"/>
    </linearGradient>
  </defs>
</svg>
