<svg width="1200" height="1800" viewBox="0 0 1200 1800" fill="none" xmlns="http://www.w3.org/2000/svg">
  <rect width="1200" height="1800" fill="#13070C"/>
  <rect width="1200" height="980" fill="url(#sky)"/>
  <ellipse cx="610" cy="1460" rx="520" ry="250" fill="#080406"/>
  <path d="M250 1050C370 900 520 840 690 838C856 836 990 906 1080 1048V1510H250V1050Z" fill="#1E0D15"/>
  <path d="M360 954C432 900 520 874 626 874C760 874 864 926 942 1030V1150H360V954Z" fill="#2C111C"/>
  <ellipse cx="678" cy="1132" rx="180" ry="180" fill="#3B1823"/>
  <ellipse cx="678" cy="1132" rx="136" ry="136" fill="#5B2838"/>
  <ellipse cx="678" cy="1132" rx="118" ry="118" fill="#7A3D55"/>
  <ellipse cx="678" cy="1132" rx="98" ry="98" fill="#4A1D2C"/>
  <path d="M178 1282C314 1166 458 1114 644 1114C826 1114 972 1170 1080 1288V1688H178V1282Z" fill="#10070B"/>
  <path d="M160 1356C312 1262 456 1218 628 1218C814 1218 964 1266 1094 1362" stroke="#31131F" stroke-width="14" stroke-linecap="round"/>
  <path d="M182 1440C328 1344 470 1304 628 1304C810 1304 958 1356 1084 1446" stroke="#2A111A" stroke-width="10" stroke-linecap="round"/>
  <circle cx="314" cy="306" r="78" fill="#8F4964" fill-opacity=".16"/>
  <circle cx="896" cy="246" r="58" fill="#E7B7C8" fill-opacity=".14"/>
  <path d="M1020 0H1200V820C1128 768 1060 728 988 696C914 664 850 644 800 638C892 502 972 292 1020 0Z" fill="#1A0A12" fill-opacity=".65"/>
  <defs>
    <linearGradient id="sky" x1="600" y1="0" x2="600" y2="980" gradientUnits="userSpaceOnUse">
      <stop stop-color="#24101B"/>
      <stop offset=".55" stop-color="#160A11"/>
      <stop offset="1" stop-color="#13070C"/>
    </linearGradient>
  </defs>
</svg>
