<svg width="1200" height="1800" viewBox="0 0 1200 1800" fill="none" xmlns="http://www.w3.org/2000/svg">
  <rect width="1200" height="1800" fill="#EDF7F2"/>
  <rect width="1200" height="990" fill="url(#sky)"/>
  <ellipse cx="600" cy="1544" rx="536" ry="224" fill="#D8EAE3"/>
  <path d="M140 1212C246 1048 402 960 600 960C798 960 954 1048 1060 1212V1668H140V1212Z" fill="#DFF1EA"/>
  <path d="M242 1302C334 1212 448 1162 600 1162C752 1162 866 1212 958 1302" stroke="#A7CAC0" stroke-width="26" stroke-linecap="round"/>
  <path d="M292 1388C380 1318 482 1280 600 1280C718 1280 820 1318 908 1388" stroke="#99C2B8" stroke-width="18" stroke-linecap="round"/>
  <path d="M468 774C520 700 572 654 626 636C678 620 726 622 770 640C720 744 646 828 548 892" fill="#BDE5D9"/>
  <circle cx="438" cy="888" r="84" fill="#C9ECE3"/>
  <circle cx="736" cy="846" r="62" fill="#C4E8DE" fill-opacity=".88"/>
  <path d="M374 1086C462 1016 538 980 608 980C684 980 766 1018 860 1096" stroke="#8FB8AE" stroke-width="16" stroke-linecap="round"/>
  <path d="M356 1160C444 1100 530 1070 608 1070C694 1070 774 1098 852 1158" stroke="#7BA298" stroke-width="12" stroke-linecap="round"/>
  <defs>
    <linearGradient id="sky" x1="600" y1="0" x2="600" y2="990" gradientUnits="userSpaceOnUse">
      <stop stop-color="#FBFFFE"/>
      <stop offset=".46" stop-color="#DFF5EE"/>
      <stop offset="1" stop-color="#EDF7F2"/>
    </linearGradient>
  </defs>
</svg>
