<svg xmlns="http://www.w3.org/2000/svg" viewBox="0 0 390 520">
  <defs>
    <linearGradient id="lockedBg" x1="0" y1="0" x2="0" y2="1">
      <stop offset="0%" stop-color="#08101a"/>
      <stop offset="54%" stop-color="#18253a"/>
      <stop offset="100%" stop-color="#33415f"/>
    </linearGradient>
    <linearGradient id="beam" x1="0" y1="0" x2="0" y2="1">
      <stop offset="0%" stop-color="#dbe8ff" stop-opacity=".32"/>
      <stop offset="100%" stop-color="#dbe8ff" stop-opacity="0"/>
    </linearGradient>
  </defs>
  <rect width="390" height="520" fill="url(#lockedBg)"/>
  <path d="M0 340 C78 322 143 326 213 309 C282 292 338 297 390 288 L390 520 L0 520 Z" fill="#192332"/>
  <path d="M0 424 C84 406 149 412 220 397 C290 382 340 387 390 378 L390 520 L0 520 Z" fill="#0e151f"/>
  <rect x="48" y="56" width="94" height="292" rx="16" fill="#253247"/>
  <rect x="248" y="56" width="94" height="292" rx="16" fill="#253247"/>
  <rect x="78" y="92" width="34" height="204" rx="16" fill="#0d1624"/>
  <rect x="278" y="92" width="34" height="204" rx="16" fill="#0d1624"/>
  <circle cx="123" cy="202" r="6" fill="#8d9bb7" opacity=".48"/>
  <circle cx="267" cy="202" r="6" fill="#8d9bb7" opacity=".48"/>
  <path d="M170 72 L226 72 L243 212 L153 212 Z" fill="url(#beam)"/>
  <path d="M151 212 L243 212 L280 520 L110 520 Z" fill="url(#beam)" opacity=".42"/>
  <path d="M92 348 C101 325 119 312 144 312 C158 312 169 318 176 330 C162 336 149 344 139 359 Z" fill="#131b27"/>
  <path d="M214 360 C223 334 243 319 269 319 C284 319 296 326 303 339 C287 344 273 352 262 367 Z" fill="#131b27"/>
  <circle cx="195" cy="330" r="13" fill="#111824"/>
  <path d="M181 343 C182 365 177 396 172 428 C185 435 201 435 217 428 C212 396 209 365 209 343 Z" fill="#111824"/>
</svg>
