<svg xmlns="http://www.w3.org/2000/svg" viewBox="0 0 390 520">
  <defs>
    <linearGradient id="desertNight" x1="0" y1="0" x2="0" y2="1">
      <stop offset="0%" stop-color="#06080d"/>
      <stop offset="56%" stop-color="#151323"/>
      <stop offset="100%" stop-color="#4d2e1d"/>
    </linearGradient>
    <radialGradient id="guidingStar" cx="72%" cy="16%" r="34%">
      <stop offset="0%" stop-color="#fff4c7" stop-opacity=".94"/>
      <stop offset="100%" stop-color="#fbbf24" stop-opacity="0"/>
    </radialGradient>
  </defs>
  <rect width="390" height="520" fill="url(#desertNight)"/>
  <circle cx="284" cy="90" r="92" fill="url(#guidingStar)"/>
  <path d="M123 158 C187 120 225 104 286 90" fill="none" stroke="#fbc94a" stroke-width="4.5" stroke-linecap="round" opacity=".42"/>
  <g fill="#fff1bc" opacity=".72">
    <circle cx="48" cy="60" r="1.3"/><circle cx="86" cy="43" r="1.1"/><circle cx="118" cy="76" r="1.2"/>
    <circle cx="164" cy="54" r="1.3"/><circle cx="328" cy="48" r="1.2"/>
  </g>
  <path d="M0 330 C80 313 142 296 206 283 C274 270 333 270 390 258 L390 520 L0 520 Z" fill="#7a4a2a"/>
  <path d="M0 383 C89 365 151 352 223 340 C295 327 338 327 390 318 L390 520 L0 520 Z" fill="#59331d"/>
  <path d="M0 438 C100 423 164 419 234 409 C302 399 344 398 390 392 L390 520 L0 520 Z" fill="#442716"/>
  <path d="M82 389 C92 357 109 341 130 341 C144 341 153 348 158 361 C146 364 137 370 132 381 Z" fill="#180f12"/>
  <path d="M150 392 C160 361 177 345 197 345 C212 345 220 353 226 366 C214 369 205 375 200 387 Z" fill="#180f12"/>
  <path d="M218 393 C229 362 245 347 265 347 C280 347 288 355 294 367 C281 370 272 377 267 389 Z" fill="#180f12"/>
  <ellipse cx="106" cy="390" rx="18" ry="6" fill="#2a1711" opacity=".48"/>
  <ellipse cx="174" cy="392" rx="20" ry="6" fill="#2a1711" opacity=".48"/>
  <ellipse cx="241" cy="393" rx="20" ry="6" fill="#2a1711" opacity=".48"/>
</svg>
