<svg width="1200" height="1800" viewBox="0 0 1200 1800" fill="none" xmlns="http://www.w3.org/2000/svg">
  <rect width="1200" height="1800" fill="#09080A"/>
  <rect width="1200" height="1020" fill="url(#sky)"/>
  <ellipse cx="600" cy="1360" rx="560" ry="180" fill="#16212C"/>
  <ellipse cx="600" cy="1456" rx="560" ry="160" fill="#0D141B"/>
  <path d="M260 1224C392 1168 502 1142 600 1142C698 1142 808 1168 940 1224L860 1370C772 1340 686 1324 600 1324C514 1324 428 1340 340 1370L260 1224Z" fill="#2A1C18"/>
  <path d="M344 1276C428 1242 512 1226 600 1226C688 1226 772 1242 856 1276" stroke="#5A4037" stroke-width="14" stroke-linecap="round"/>
  <path d="M290 1030L468 1350" stroke="#6B4D43" stroke-width="16" stroke-linecap="round"/>
  <path d="M910 1030L732 1350" stroke="#6B4D43" stroke-width="16" stroke-linecap="round"/>
  <circle cx="600" cy="356" r="94" fill="#AA3A32" fill-opacity=".18"/>
  <path d="M0 1022C176 972 336 944 600 944C864 944 1024 972 1200 1022V1170H0V1022Z" fill="#1B2430"/>
  <defs>
    <linearGradient id="sky" x1="600" y1="0" x2="600" y2="1020" gradientUnits="userSpaceOnUse">
      <stop stop-color="#30110F"/>
      <stop offset=".34" stop-color="#142230"/>
      <stop offset="1" stop-color="#09080A"/>
    </linearGradient>
  </defs>
</svg>
