<svg width="1200" height="1800" viewBox="0 0 1200 1800" fill="none" xmlns="http://www.w3.org/2000/svg">
  <rect width="1200" height="1800" fill="#0B0C10"/>
  <rect width="1200" height="1040" fill="url(#sky)"/>
  <path d="M0 936C94 886 164 1018 262 944C354 874 444 1030 548 952C644 880 736 1040 844 962C944 888 1040 1028 1200 938V1800H0V936Z" fill="#234B6E"/>
  <path d="M0 1128C102 1074 178 1198 274 1132C366 1068 462 1222 560 1156C662 1088 746 1230 854 1164C956 1102 1048 1234 1200 1140V1800H0V1128Z" fill="#173956"/>
  <path d="M244 1126L520 1014L860 1088L692 1204L244 1126Z" fill="#402F2F"/>
  <circle cx="630" cy="1018" r="24" fill="#19121A"/>
  <rect x="604" y="1044" width="52" height="156" rx="24" fill="#19121A"/>
  <path d="M128 726L412 938" stroke="#A82020" stroke-width="8" stroke-linecap="round" opacity=".35"/>
  <path d="M1068 704L812 930" stroke="#A82020" stroke-width="8" stroke-linecap="round" opacity=".35"/>
  <circle cx="946" cy="332" r="112" fill="#C03A31" fill-opacity=".12"/>
  <defs>
    <linearGradient id="sky" x1="600" y1="0" x2="600" y2="1040" gradientUnits="userSpaceOnUse">
      <stop stop-color="#0B1321"/>
      <stop offset=".44" stop-color="#173451"/>
      <stop offset="1" stop-color="#201B29"/>
    </linearGradient>
  </defs>
</svg>
