<svg xmlns="http://www.w3.org/2000/svg" viewBox="0 0 390 520">
  <defs>
    <linearGradient id="bg" x1="0" y1="0" x2="0" y2="1">
      <stop offset="0%" stop-color="#0a0a12"/>
      <stop offset="58%" stop-color="#201625"/>
      <stop offset="100%" stop-color="#4c2737"/>
    </linearGradient>
    <radialGradient id="window" cx="50%" cy="22%" r="40%">
      <stop offset="0%" stop-color="#f9e7d1" stop-opacity=".85"/>
      <stop offset="100%" stop-color="#f9e7d1" stop-opacity="0"/>
    </radialGradient>
  </defs>
  <rect width="390" height="520" fill="url(#bg)"/>
  <circle cx="210" cy="118" r="96" fill="url(#window)"/>
  <rect x="40" y="110" width="110" height="180" rx="8" fill="#16111a" opacity=".65"/>
  <rect x="67" y="320" width="48" height="108" rx="8" fill="#1d1318"/>
  <rect x="55" y="304" width="72" height="18" rx="8" fill="#4d2a31"/>
  <path d="M0 372 C83 344 140 352 211 336 C281 321 336 326 390 312 L390 520 L0 520 Z" fill="#2f1621"/>
  <path d="M0 432 C75 407 143 414 217 396 C286 379 334 386 390 374 L390 520 L0 520 Z" fill="#190d13"/>
  <rect x="226" y="246" width="92" height="18" rx="9" fill="#734755" opacity=".82"/>
  <rect x="259" y="260" width="24" height="94" rx="10" fill="#2a1820"/>
</svg>
