<svg xmlns="http://www.w3.org/2000/svg" viewBox="0 0 390 520">
  <defs>
    <linearGradient id="room" x1="0" y1="0" x2="0" y2="1">
      <stop offset="0%" stop-color="#090910"/>
      <stop offset="54%" stop-color="#1f1624"/>
      <stop offset="100%" stop-color="#4c2838"/>
    </linearGradient>
    <radialGradient id="windowGlow" cx="58%" cy="20%" r="36%">
      <stop offset="0%" stop-color="#f6e6d0" stop-opacity=".96"/>
      <stop offset="100%" stop-color="#f6e6d0" stop-opacity="0"/>
    </radialGradient>
    <linearGradient id="floorLight" x1="0" y1="0" x2="1" y2="1">
      <stop offset="0%" stop-color="#f5d6b8" stop-opacity=".24"/>
      <stop offset="100%" stop-color="#f5d6b8" stop-opacity="0"/>
    </linearGradient>
  </defs>
  <rect width="390" height="520" fill="url(#room)"/>
  <circle cx="223" cy="112" r="104" fill="url(#windowGlow)"/>
  <path d="M0 350 C82 324 146 329 215 312 C281 296 336 300 390 288 L390 520 L0 520 Z" fill="#2f1721"/>
  <path d="M0 427 C88 405 153 411 221 394 C288 378 338 383 390 372 L390 520 L0 520 Z" fill="#180d14"/>
  <rect x="42" y="104" width="114" height="194" rx="10" fill="#141018" opacity=".72"/>
  <path d="M42 298 L156 298 L196 382 L0 406 Z" fill="url(#floorLight)"/>
  <path d="M72 120 L126 120 L126 224 L72 224 Z" fill="#2a1f24" opacity=".55"/>
  <path d="M99 120 L99 224 M72 172 L126 172" stroke="#514148" stroke-width="4" opacity=".4"/>
  <rect x="62" y="309" width="76" height="18" rx="9" fill="#59313b"/>
  <rect x="74" y="323" width="16" height="103" rx="8" fill="#24161c"/>
  <rect x="112" y="323" width="16" height="103" rx="8" fill="#24161c"/>
  <rect x="230" y="246" width="95" height="20" rx="10" fill="#7a4c59" opacity=".84"/>
  <rect x="264" y="262" width="26" height="100" rx="11" fill="#291820"/>
  <ellipse cx="245" cy="244" rx="18" ry="8" fill="#2b1b22" opacity=".56"/>
  <path d="M244 238 C249 228 261 222 274 224 C275 236 269 244 262 250 C254 247 248 243 244 238 Z" fill="#c9b2ab" opacity=".75"/>
</svg>
