<svg xmlns="http://www.w3.org/2000/svg" viewBox="0 0 390 520">
  <defs>
    <linearGradient id="bg" x1="0" y1="0" x2="0" y2="1">
      <stop offset="0%" stop-color="#edf6ee"/>
      <stop offset="45%" stop-color="#b7d6b7"/>
      <stop offset="100%" stop-color="#5f7e59"/>
    </linearGradient>
  </defs>
  <rect width="390" height="520" fill="url(#bg)"/>
  <circle cx="286" cy="96" r="42" fill="#fff7cf" opacity=".85"/>
  <path d="M0 324 C83 300 151 307 216 291 C280 275 332 280 390 268 L390 520 L0 520 Z" fill="#7da171"/>
  <path d="M0 402 C77 379 148 387 216 371 C283 355 336 361 390 350 L390 520 L0 520 Z" fill="#58714f"/>
  <rect x="128" y="176" width="24" height="178" rx="12" fill="#634433"/>
  <circle cx="139" cy="150" r="54" fill="#4a7f4a"/>
  <circle cx="114" cy="178" r="42" fill="#538a53"/><circle cx="166" cy="178" r="40" fill="#538a53"/>
  <circle cx="178" cy="120" r="26" fill="#538a53"/>
  <circle cx="182" cy="206" r="10" fill="#2a1d18"/><rect x="174" y="216" width="16" height="62" rx="8" fill="#2a1d18"/>
</svg>
