<svg width="1200" height="1800" viewBox="0 0 1200 1800" fill="none" xmlns="http://www.w3.org/2000/svg">
  <rect width="1200" height="1800" fill="#100E11"/>
  <rect width="1200" height="980" fill="url(#sky)"/>
  <circle cx="614" cy="380" r="150" fill="#F8BF42" fill-opacity=".18"/>
  <path d="M0 1038L232 796L388 940L598 742L822 974L1200 796V1800H0V1038Z" fill="#1A151D"/>
  <path d="M0 1278C166 1186 314 1162 480 1126C654 1088 822 1114 980 1078C1072 1058 1148 1028 1200 998V1800H0V1278Z" fill="#23131A"/>
  <path d="M438 1800C470 1480 534 1244 598 1036C664 1240 734 1478 774 1800H438Z" fill="#291217"/>
  <path d="M474 690L542 626L600 680L658 626L726 690L688 820H512L474 690Z" fill="#F2CF78"/>
  <circle cx="600" cy="744" r="30" fill="#2B1217"/>
  <rect x="568" y="776" width="64" height="222" rx="28" fill="#2B1217"/>
  <path d="M140 1496C278 1410 412 1384 570 1388C736 1392 870 1432 1022 1426C1090 1424 1148 1414 1200 1392" stroke="#462C23" stroke-width="16" stroke-linecap="round"/>
  <defs>
    <linearGradient id="sky" x1="600" y1="0" x2="600" y2="980" gradientUnits="userSpaceOnUse">
      <stop stop-color="#0E1218"/>
      <stop offset=".5" stop-color="#2B1824"/>
      <stop offset="1" stop-color="#633817"/>
    </linearGradient>
  </defs>
</svg>
